<svg xmlns="http://www.w3.org/2000/svg" version="1.1" xmlns:xlink="http://www.w3.org/1999/xlink" width="512" height="512" x="0" y="0" viewBox="0 0 682.667 682.667" style="enable-background:new 0 0 512 512" xml:space="preserve" class=""><g><defs><clipPath id="a" clipPathUnits="userSpaceOnUse"><path d="M0 512h512V0H0Z" fill="#000000" opacity="1" data-original="#000000"></path></clipPath></defs><g clip-path="url(#a)" transform="matrix(1.33333 0 0 -1.33333 0 682.667)"><path d="M0 0h-376.69c17.26 0 27.02 9.03 32.56 24 26.8 72.28-44.58 282.93 155.79 282.93S-59.36 96.28-32.56 24C-27.01 9.03-17.25 0 0 0" style="fill-opacity:1;fill-rule:nonzero;stroke:none" transform="translate(445.34 158.16)" fill="#f7c421" data-original="#f7c421" class=""></path><path d="M0 0c0-20.14-16.33-36.47-36.47-36.47h-376.69c-10.07 0-19.19 4.08-25.79 10.68-6.6 6.6-10.68 15.72-10.68 25.79 0 20.14 16.33 36.47 36.47 36.47h376.69c10.07 0 19.19-4.08 25.79-10.68C-4.08 19.19 0 10.07 0 0" style="fill-opacity:1;fill-rule:nonzero;stroke:none" transform="translate(481.81 121.69)" fill="#e5ae13" data-original="#e5ae13" class=""></path><path d="M0 0h-195.785c-21.108 0-37.986 17.471-37.334 38.569 2.762 89.261-11.476 242.664 75.873 244.351-239.77-1.24-86.5-306.92-186.88-306.92H32.56C15.31-24 5.55-14.97 0 0" style="fill-opacity:1;fill-rule:nonzero;stroke:none" transform="translate(412.78 182.16)" fill="#e5ae13" data-original="#e5ae13" class=""></path><path d="M0 0c0-20.14-16.33-36.47-36.47-36.47h-271.3c-10.07 0-19.19 4.08-25.79 10.68-6.6 6.6-10.68 15.72-10.68 25.79 0 20.14 16.33 36.47 36.47 36.47h271.3c10.07 0 19.19-4.08 25.79-10.68C-4.08 19.19 0 10.07 0 0" style="fill-opacity:1;fill-rule:nonzero;stroke:none" transform="translate(481.81 121.69)" fill="#f7c421" data-original="#f7c421" class=""></path><path d="M0 0c0-33.54-22.63-61.78-53.44-70.31a72.963 72.963 0 0 0-19.5-2.64c-40.29 0-72.95 32.66-72.95 72.95z" style="fill-opacity:1;fill-rule:nonzero;stroke:none" transform="translate(329.94 85.22)" fill="#e5ae13" data-original="#e5ae13" class=""></path><path d="M0 0c-7.51-23.18-26.31-41.28-49.91-47.81-14.838 4.104-27.776 12.777-37.205 24.409C-94.717-14.023-87.86 0-75.789 0Z" style="fill-opacity:1;fill-rule:nonzero;stroke:none" transform="translate(326.41 62.72)" fill="#f7c421" data-original="#f7c421" class=""></path><path d="M0 0c.08.92.11 1.85.11 2.79 0 20.53-16.65 37.18-37.18 37.18-20.54 0-37.18-16.65-37.18-37.18 0-.94.03-1.87.11-2.79" style="fill-opacity:1;fill-rule:nonzero;stroke:none" transform="translate(294.07 462.3)" fill="#e5ae13" data-original="#e5ae13" class=""></path><path d="M0 0h299.214c20.144 0 36.473 16.33 36.473 36.474 0 20.143-16.329 36.473-36.473 36.473H-77.472c-20.144 0-36.473-16.33-36.473-36.473C-113.945 16.33-97.616 0-77.472 0h47.471" style="stroke-width:15;stroke-linecap:round;stroke-linejoin:round;stroke-miterlimit:10;stroke-dasharray:none;stroke-opacity:1" transform="translate(146.126 85.215)" fill="none" stroke="#000000" stroke-width="15" stroke-linecap="round" stroke-linejoin="round" stroke-miterlimit="10" stroke-dasharray="none" stroke-opacity="" data-original="#000000" class=""></path><path d="M0 0c-18.102 41.213-55.016 71.187-130.597 71.187-241.861 0-87.765-306.928-188.343-306.928" style="stroke-width:15;stroke-linecap:round;stroke-linejoin:round;stroke-miterlimit:10;stroke-dasharray:none;stroke-opacity:1" transform="translate(387.594 393.903)" fill="none" stroke="#000000" stroke-width="15" stroke-linecap="round" stroke-linejoin="round" stroke-miterlimit="10" stroke-dasharray="none" stroke-opacity="" data-original="#000000" class=""></path><path d="M0 0c-62.534 0-26.619 118.648-48.632 208.407" style="stroke-width:15;stroke-linecap:round;stroke-linejoin:round;stroke-miterlimit:10;stroke-dasharray:none;stroke-opacity:1" transform="translate(445.34 158.162)" fill="none" stroke="#000000" stroke-width="15" stroke-linecap="round" stroke-linejoin="round" stroke-miterlimit="10" stroke-dasharray="none" stroke-opacity="" data-original="#000000" class=""></path><path d="M0 0c0-40.288 32.659-72.947 72.947-72.947 40.287 0 72.947 32.659 72.947 72.947" style="stroke-width:15;stroke-linecap:round;stroke-linejoin:round;stroke-miterlimit:10;stroke-dasharray:none;stroke-opacity:1" transform="translate(184.05 85.215)" fill="none" stroke="#000000" stroke-width="15" stroke-linecap="round" stroke-linejoin="round" stroke-miterlimit="10" stroke-dasharray="none" stroke-opacity="" data-original="#000000" class=""></path><path d="M0 0c.08.92.11 1.85.11 2.79 0 20.53-16.65 37.18-37.18 37.18-20.54 0-37.18-16.65-37.18-37.18 0-.94.03-1.87.11-2.79" style="stroke-width:15;stroke-linecap:round;stroke-linejoin:round;stroke-miterlimit:10;stroke-dasharray:none;stroke-opacity:1" transform="translate(294.07 462.3)" fill="none" stroke="#000000" stroke-width="15" stroke-linecap="round" stroke-linejoin="round" stroke-miterlimit="10" stroke-dasharray="none" stroke-opacity="" data-original="#000000" class=""></path><path d="M0 0s56.997-31.499 56.997-119.994" style="stroke-width:15;stroke-linecap:round;stroke-linejoin:round;stroke-miterlimit:10;stroke-dasharray:none;stroke-opacity:1" transform="translate(381.074 469.252)" fill="none" stroke="#000000" stroke-width="15" stroke-linecap="round" stroke-linejoin="round" stroke-miterlimit="10" stroke-dasharray="none" stroke-opacity="" data-original="#000000" class=""></path><path d="M0 0s32.998-20.999 32.998-73.997" style="stroke-width:15;stroke-linecap:round;stroke-linejoin:round;stroke-miterlimit:10;stroke-dasharray:none;stroke-opacity:1" transform="translate(438.07 466.252)" fill="none" stroke="#000000" stroke-width="15" stroke-linecap="round" stroke-linejoin="round" stroke-miterlimit="10" stroke-dasharray="none" stroke-opacity="" data-original="#000000" class=""></path><path d="M0 0s-56.997-31.499-56.997-119.994" style="stroke-width:15;stroke-linecap:round;stroke-linejoin:round;stroke-miterlimit:10;stroke-dasharray:none;stroke-opacity:1" transform="translate(132.917 469.252)" fill="none" stroke="#000000" stroke-width="15" stroke-linecap="round" stroke-linejoin="round" stroke-miterlimit="10" stroke-dasharray="none" stroke-opacity="" data-original="#000000" class=""></path><path d="M0 0s-32.999-20.999-32.999-73.997" style="stroke-width:15;stroke-linecap:round;stroke-linejoin:round;stroke-miterlimit:10;stroke-dasharray:none;stroke-opacity:1" transform="translate(75.92 466.252)" fill="none" stroke="#000000" stroke-width="15" stroke-linecap="round" stroke-linejoin="round" stroke-miterlimit="10" stroke-dasharray="none" stroke-opacity="" data-original="#000000" class=""></path></g></g></svg>
