<svg xmlns="http://www.w3.org/2000/svg" version="1.1" xmlns:xlink="http://www.w3.org/1999/xlink" width="512" height="512" x="0" y="0" viewBox="0 0 256 256" style="enable-background:new 0 0 512 512" xml:space="preserve" class=""><g><path fill="#d4d853" d="M47.514 26.245c-.974 11.564-13.031 13.39-13.031 13.39 10.352.487 12.932 14.059 12.932 14.059.221-9.677 13.328-14.202 13.328-14.202-9.819-.588-13.229-13.247-13.229-13.247z" opacity="1" data-original="#d4d853"></path><path fill="#3a312a" d="M60.833 37.994c-8.609-.515-11.839-12.025-11.87-12.141a1.5 1.5 0 0 0-2.943.266c-.861 10.216-11.32 11.964-11.761 12.033a1.5 1.5 0 0 0 .155 2.981c9.033.425 11.505 12.718 11.528 12.842a1.502 1.502 0 0 0 1.599 1.212 1.5 1.5 0 0 0 1.375-1.459c.194-8.509 12.198-12.777 12.319-12.819a1.502 1.502 0 0 0-.402-2.915zM47.26 48.342c-1.357-3.131-3.71-6.909-7.591-8.878 2.933-1.405 6.412-3.914 8.206-8.274 1.552 3.071 4.202 6.881 8.339 8.724-3.009 1.639-6.927 4.406-8.954 8.428z" opacity="1" data-original="#3a312a"></path><path fill="#d4d853" d="M25.805 43.226c-.689 8.179-9.217 9.471-9.217 9.471 7.322.345 9.147 9.944 9.147 9.944.156-6.844 9.427-10.046 9.427-10.046-6.945-.415-9.357-9.369-9.357-9.369z" opacity="1" data-original="#d4d853"></path><path fill="#3a312a" d="M35.251 51.098c-5.77-.345-7.977-8.186-7.999-8.265a1.51 1.51 0 0 0-1.581-1.102 1.5 1.5 0 0 0-1.361 1.368c-.579 6.871-7.651 8.067-7.947 8.114a1.5 1.5 0 0 0 .155 2.982c6.039.284 7.728 8.644 7.744 8.726a1.502 1.502 0 0 0 2.974-.246c.13-5.709 8.335-8.633 8.416-8.662a1.5 1.5 0 0 0-.401-2.915zm-9.59 6.796c-.924-1.886-2.341-3.948-4.45-5.281 1.857-1.041 3.7-2.63 4.874-4.917 1.058 1.874 2.656 3.956 4.944 5.225-1.85 1.1-3.991 2.74-5.368 4.973z" opacity="1" data-original="#3a312a"></path><path fill="#d4d853" d="M25.805 16.568c-.689 8.179-9.217 9.471-9.217 9.471 7.322.345 9.147 9.944 9.147 9.944.156-6.845 9.427-10.045 9.427-10.045-6.945-.416-9.357-9.37-9.357-9.37z" opacity="1" data-original="#d4d853"></path><path fill="#3a312a" d="M35.251 24.44c-5.77-.345-7.977-8.185-7.999-8.265a1.5 1.5 0 0 0-2.942.266c-.579 6.871-7.651 8.067-7.947 8.114a1.5 1.5 0 0 0 .155 2.981c6.039.284 7.728 8.644 7.744 8.726a1.502 1.502 0 0 0 2.974-.246c.13-5.709 8.336-8.634 8.416-8.662a1.5 1.5 0 0 0 .997-1.622 1.503 1.503 0 0 0-1.398-1.292zm-9.59 6.796c-.924-1.886-2.341-3.948-4.45-5.281 1.857-1.041 3.7-2.63 4.874-4.917 1.058 1.874 2.656 3.956 4.944 5.225-1.85 1.1-3.991 2.74-5.368 4.973z" opacity="1" data-original="#3a312a"></path><path fill="#ea6d7a" d="m174.021 59.04-39.714-39.714a8.824 8.824 0 0 0-12.479 0l-10.445 10.445-10.286 10.286L82.115 59.04a8.824 8.824 0 0 0 0 12.479l39.714 39.714a8.824 8.824 0 0 0 12.479 0l39.714-39.714a8.827 8.827 0 0 0-.001-12.479z" opacity="1" data-original="#ea6d7a"></path><path fill="#3a312a" d="m175.081 57.979-39.714-39.714a10.254 10.254 0 0 0-7.3-3.024c-2.757 0-5.35 1.074-7.3 3.024L110.322 28.71a1.5 1.5 0 1 0 2.121 2.121l10.445-10.445a7.28 7.28 0 0 1 5.179-2.145c1.957 0 3.796.762 5.179 2.145L172.96 60.1c1.384 1.383 2.146 3.223 2.146 5.179s-.762 3.795-2.146 5.179l-39.714 39.714a7.276 7.276 0 0 1-5.179 2.145 7.28 7.28 0 0 1-5.179-2.145L83.175 70.458c-2.855-2.856-2.855-7.502 0-10.357l18.982-18.982a1.5 1.5 0 1 0-2.121-2.121L81.054 57.979c-4.024 4.025-4.024 10.575 0 14.6l39.714 39.714a10.257 10.257 0 0 0 7.3 3.024c2.758 0 5.351-1.074 7.3-3.024l39.714-39.714c1.95-1.95 3.024-4.542 3.024-7.3s-1.075-5.35-3.025-7.3z" opacity="1" data-original="#3a312a"></path><path fill="#d4db56" d="m236.828 121.848-39.714-39.714a8.823 8.823 0 0 0-12.478 0l-39.714 39.714a8.824 8.824 0 0 0 0 12.479l39.714 39.714a8.823 8.823 0 0 0 12.478 0l39.714-39.714a8.824 8.824 0 0 0 0-12.479z" opacity="1" data-original="#d4db56"></path><path fill="#3a312a" d="m237.889 120.787-39.714-39.714a10.254 10.254 0 0 0-7.3-3.024c-2.757 0-5.35 1.074-7.3 3.024l-39.714 39.714c-4.024 4.025-4.024 10.575 0 14.6l39.714 39.714a10.257 10.257 0 0 0 7.3 3.024c2.758 0 5.351-1.074 7.3-3.024l39.714-39.714c1.95-1.95 3.024-4.542 3.024-7.3s-1.074-5.35-3.024-7.3zm-2.121 12.479-39.714 39.714a7.276 7.276 0 0 1-5.179 2.145 7.28 7.28 0 0 1-5.179-2.145l-39.714-39.714c-2.854-2.855-2.854-7.502 0-10.357l39.714-39.714a7.28 7.28 0 0 1 5.179-2.145c1.957 0 3.796.762 5.179 2.145l39.714 39.714a7.274 7.274 0 0 1 2.146 5.179 7.284 7.284 0 0 1-2.146 5.178z" opacity="1" data-original="#3a312a"></path><path fill="#8ac5dc" d="M111.213 121.848 71.499 82.134a8.824 8.824 0 0 0-12.479 0l-39.714 39.714a8.824 8.824 0 0 0 0 12.479l39.714 39.714a8.824 8.824 0 0 0 12.479 0l39.714-39.714a8.824 8.824 0 0 0 0-12.479z" opacity="1" data-original="#8ac5dc"></path><path fill="#3a312a" d="M112.273 120.787 72.56 81.073c-4.025-4.025-10.574-4.024-14.6 0l-39.714 39.714c-4.024 4.025-4.024 10.575 0 14.6l39.714 39.714a10.29 10.29 0 0 0 7.3 3.018c2.643 0 5.287-1.006 7.3-3.018l39.714-39.714c1.95-1.95 3.025-4.542 3.025-7.3s-1.075-5.35-3.026-7.3zm-2.121 12.479L70.438 172.98c-2.855 2.854-7.502 2.854-10.357 0l-39.714-39.714c-2.854-2.855-2.854-7.502 0-10.357l39.714-39.714c2.854-2.854 7.501-2.855 10.357 0l39.714 39.714a7.274 7.274 0 0 1 2.146 5.179 7.276 7.276 0 0 1-2.146 5.178z" opacity="1" data-original="#3a312a"></path><path fill="#87796f" d="m174.021 184.655-18.367-18.367-10.284-10.285-11.062-11.062a8.824 8.824 0 0 0-12.479 0l-39.714 39.714a8.824 8.824 0 0 0 0 12.479l39.714 39.714a8.824 8.824 0 0 0 12.479 0l39.714-39.714a8.827 8.827 0 0 0-.001-12.479z" opacity="1" data-original="#87796f"></path><path fill="#3a312a" d="m175.081 183.595-18.367-18.367a1.5 1.5 0 1 0-2.121 2.121l18.367 18.367c1.384 1.383 2.146 3.223 2.146 5.179s-.762 3.795-2.146 5.179l-39.714 39.714a7.276 7.276 0 0 1-5.179 2.145 7.28 7.28 0 0 1-5.179-2.145l-39.714-39.714c-2.855-2.855-2.855-7.502 0-10.357l39.714-39.714a7.28 7.28 0 0 1 5.179-2.145c1.957 0 3.796.762 5.179 2.145l11.062 11.062a1.5 1.5 0 1 0 2.121-2.121l-11.062-11.062a10.254 10.254 0 0 0-7.3-3.024c-2.757 0-5.35 1.074-7.3 3.024l-39.714 39.714c-4.024 4.025-4.024 10.575 0 14.6l39.714 39.714a10.257 10.257 0 0 0 7.3 3.024c2.758 0 5.351-1.074 7.3-3.024l39.714-39.714a10.255 10.255 0 0 0 3.024-7.3c0-2.759-1.074-5.352-3.024-7.301z" opacity="1" data-original="#3a312a"></path><path fill="#b9c239" d="m235.768 122.907-39.71-39.71a7.278 7.278 0 0 0-5.18-2.15c-1.96 0-3.8.76-5.18 2.15l-2.82 2.82 36.89 36.89c1.38 1.38 2.15 3.22 2.15 5.18s-.77 3.8-2.15 5.18l-36.89 36.89 2.82 2.82a7.244 7.244 0 0 0 5.18 2.15c1.95 0 3.79-.76 5.18-2.15l39.71-39.71a7.285 7.285 0 0 0 2.15-5.18 7.29 7.29 0 0 0-2.15-5.18z" opacity="1" data-original="#b9c239"></path></g></svg>