<svg xmlns="http://www.w3.org/2000/svg" version="1.1" xmlns:xlink="http://www.w3.org/1999/xlink" width="512" height="512" x="0" y="0" viewBox="0 0 511.999 511.999" style="enable-background:new 0 0 512 512" xml:space="preserve" class=""><g><path d="m301.075 107.086-91.821-8.478-27.407-30.543 30.695-49.896c5.827-9.47 17.715-13.233 27.933-8.852l48.298 20.719 11.938 74.774.364 2.276z" style="" fill="#2abcc8" data-original="#2abcc8" class=""></path><path d="M300.711 104.81c-23.461-4.633-41.196-12.282-35.905-24.898 13.445-32.04-24.331-70.596-24.331-70.596l48.298 20.719 11.938 74.775z" style="" fill="#0cacba" data-original="#0cacba"></path><path d="M441.16 17.216H301.597c-7.08 0-12.819 5.739-12.819 12.819V145.32H453.98V30.035c0-7.079-5.74-12.819-12.82-12.819z" style="" fill="#ffe177" data-original="#ffe177"></path><path d="M453.98 30.035v115.282h-34.064V30.035c0-7.082-5.736-12.818-12.818-12.818h34.064c7.071 0 12.818 5.737 12.818 12.818z" style="" fill="#fece85" data-original="#fece85" class=""></path><path d="M435.043 330.228H191.805L137.963 145.32h326.216z" style="" fill="#678d98" data-original="#678d98" class=""></path><path d="M424.599 17.219h16.56c7.08 0 12.82 5.74 12.82 12.82v98.25M288.769 68.069v-38.03c0-7.08 5.75-12.82 12.83-12.82h88" style="stroke-width:15;stroke-linecap:round;stroke-linejoin:round;stroke-miterlimit:10;" fill="none" stroke="#000000" stroke-width="15" stroke-linecap="round" stroke-linejoin="round" stroke-miterlimit="10" data-original="#000000" class=""></path><path d="M320.876 68.062H181.844c-7.226 0-13.085 5.858-13.085 13.085v61.605c0 7.226 5.858 13.085 13.085 13.085h139.032c7.226 0 13.085-5.858 13.085-13.085V81.146c0-7.226-5.858-13.084-13.085-13.084z" style="" fill="#fd8087" data-original="#fd8087"></path><path d="M333.965 81.147v61.602c0 7.234-5.858 13.091-13.081 13.091h-31.949c7.234 0 13.091-5.858 13.091-13.091V81.147c0-7.224-5.858-13.081-13.091-13.081h31.949c7.223-.001 13.081 5.857 13.081 13.081z" style="" fill="#fe646f" data-original="#fe646f" class=""></path><path d="M333.965 128.291V81.147c0-7.223-5.858-13.081-13.091-13.081H181.847c-7.234 0-13.091 5.858-13.091 13.081v47.145" style="stroke-width:15;stroke-linecap:round;stroke-linejoin:round;stroke-miterlimit:10;" fill="none" stroke="#000000" stroke-width="15" stroke-linecap="round" stroke-linejoin="round" stroke-miterlimit="10" data-original="#000000" class=""></path><path d="M447.943 223.607h-46.889l6.443-75.983-27.172-2.304-6.638 78.287h-47.38v-76.083h-27.27v76.083h-47.379l-6.638-78.287-27.172 2.304 6.443 75.983h-58.149v27.27h60.461l6.729 79.351 27.171-2.304-6.533-77.047h45.067v76.083h27.27v-76.083h45.068l-6.533 77.047 27.172 2.304 6.728-79.351h49.201z" style="" fill="#cbe5e8" data-original="#cbe5e8" class=""></path><path d="M326.303 164.651v58.956h47.385l4.999-58.956M219.298 164.651l4.99 58.956h-45.412M259.057 310.896l-5.091-60.019h45.067v60.019M393.649 310.896l5.09-60.019h29.86M432.889 223.607h-31.832l4.99-58.956M326.303 310.896v-60.019h45.076l-5.091 60.019M186.82 250.877h39.786l5.091 60.019M299.033 164.651v58.956h-47.375l-5-58.956" style="stroke-width:15;stroke-linecap:round;stroke-linejoin:round;stroke-miterlimit:10;" fill="none" stroke="#000000" stroke-width="15" stroke-linecap="round" stroke-linejoin="round" stroke-miterlimit="10" data-original="#000000" class=""></path><path d="M477.247 134.655a18.183 18.183 0 0 0-13.816-6.363H151.134l-15.416-52.948a18.172 18.172 0 0 0-17.452-13.098H57.119c-10.044 0-18.179 8.135-18.179 18.179 0 10.044 8.135 18.179 18.179 18.179h47.503l87.489 300.553c7.108 24.415 29.833 41.458 55.257 41.458H430.08c10.035 0 18.179-8.135 18.179-18.18 0-10.035-8.144-18.179-18.179-18.179H247.367c-9.362 0-17.725-6.272-20.343-15.262l-12.153-41.74h219.826c8.953 0 16.571-6.517 17.961-15.353l28.733-182.604a18.184 18.184 0 0 0-4.144-14.642zm-58.093 176.241H204.291l-42.576-146.245H442.17l-23.016 146.245z" style="" fill="#deecf1" data-original="#deecf1"></path><path d="m481.392 149.299-28.733 182.604c-1.391 8.835-9.008 15.353-17.961 15.353h-33.641c21.652-21.652 1.9-36.359 1.9-36.359h16.198l23.015-146.245H422c17.452-26.133 0-36.359 0-36.359h41.431a18.183 18.183 0 0 1 17.961 21.006zM448.26 422.436c0 10.044-8.144 18.18-18.179 18.18h-52.357c21.306-21.306 1.682-36.359 1.682-36.359h50.675c10.034 0 18.179 8.144 18.179 18.179z" style="" fill="#cbe5e8" data-original="#cbe5e8" class=""></path><path d="M419.155 310.896H204.29l-42.572-146.245h280.448l-23.011 146.245zM78.198 62.246h40.068a18.172 18.172 0 0 1 17.452 13.098l15.416 52.948H463.43a18.182 18.182 0 0 1 17.961 21.007l-28.733 182.604c-1.391 8.835-9.008 15.353-17.961 15.353H214.871l12.153 41.74c2.618 8.99 10.98 15.262 20.343 15.262H430.08c10.035 0 18.18 8.144 18.18 18.179 0 5.563-2.5 10.535-6.426 13.862M77.259 98.609h27.36l21.62 74.28m88.4 257.44c-10.61-7.37-18.77-18.24-22.53-31.17l-56.11-192.77h-.01m250.93 234.23h-30.24m-35 0h-61.48" style="stroke-width:15;stroke-linecap:round;stroke-linejoin:round;stroke-miterlimit:10;" fill="none" stroke="#000000" stroke-width="15" stroke-linecap="round" stroke-linejoin="round" stroke-miterlimit="10" data-original="#000000" class=""></path><circle cx="230.603" cy="465.701" r="38.798" style="" fill="#678d98" data-original="#678d98" class=""></circle><circle cx="416.52" cy="465.701" r="38.798" style="" fill="#678d98" data-original="#678d98" class=""></circle><circle cx="230.603" cy="465.701" r="38.798" style="stroke-width:15;stroke-linecap:round;stroke-linejoin:round;stroke-miterlimit:10;" fill="none" stroke="#000000" stroke-width="15" stroke-linecap="round" stroke-linejoin="round" stroke-miterlimit="10" data-original="#000000" class=""></circle><circle cx="230.603" cy="465.701" r="13.559" style="" fill="#deecf1" data-original="#deecf1"></circle><circle cx="416.52" cy="465.701" r="13.559" style="" fill="#deecf1" data-original="#deecf1"></circle><circle cx="230.603" cy="465.701" r="13.559" style="stroke-width:15;stroke-linecap:round;stroke-linejoin:round;stroke-miterlimit:10;" fill="none" stroke="#000000" stroke-width="15" stroke-linecap="round" stroke-linejoin="round" stroke-miterlimit="10" data-original="#000000" class=""></circle><circle cx="416.52" cy="465.701" r="13.559" style="stroke-width:15;stroke-linecap:round;stroke-linejoin:round;stroke-miterlimit:10;" fill="none" stroke="#000000" stroke-width="15" stroke-linecap="round" stroke-linejoin="round" stroke-miterlimit="10" data-original="#000000" class=""></circle><circle cx="416.52" cy="465.701" r="38.798" style="stroke-width:15;stroke-linecap:round;stroke-linejoin:round;stroke-miterlimit:10;" fill="none" stroke="#000000" stroke-width="15" stroke-linecap="round" stroke-linejoin="round" stroke-miterlimit="10" data-original="#000000" class=""></circle><circle cx="57.559" cy="79.911" r="27.173" style="" fill="#fd8087" data-original="#fd8087"></circle><circle cx="57.559" cy="79.911" r="27.173" style="stroke-width:15;stroke-linecap:round;stroke-linejoin:round;stroke-miterlimit:10;" fill="none" stroke="#000000" stroke-width="15" stroke-linecap="round" stroke-linejoin="round" stroke-miterlimit="10" data-original="#000000" class=""></circle><path d="M453.982 81.147H333.965M288.778 30.035l-48.3-20.717c-10.218-4.383-22.105-.615-27.933 8.854l-30.702 49.889" style="stroke-width:15;stroke-linecap:round;stroke-linejoin:round;stroke-miterlimit:10;" fill="none" stroke="#000000" stroke-width="15" stroke-linecap="round" stroke-linejoin="round" stroke-miterlimit="10" data-original="#000000" class=""></path></g></svg>