<svg xmlns="http://www.w3.org/2000/svg" version="1.1" xmlns:xlink="http://www.w3.org/1999/xlink" width="512" height="512" x="0" y="0" viewBox="0 0 512 512" style="enable-background:new 0 0 512 512" xml:space="preserve" class=""><g><path d="M461.2 314c-22.6 27.4-122 109.4-173.7 151.4-18.4 15-44.7 15-63.1 0-51.7-42-151-124-173.7-151.4C16.1 272.3 0 232.6 0 189.4c0-42.2 14.4-81 40.6-109.4C67.2 51.3 103.5 35.4 143 35.4c29.6 0 56.6 9.4 80.4 27.8 12.4 9.7 23.4 21.1 32.5 34 9.2-12.8 20.1-24.3 32.5-34 23.8-18.5 50.9-27.8 80.5-27.8 39.6 0 75.9 15.9 102.4 44.6 26.1 28.4 40.6 67.1 40.6 109.4.1 43.2-16 82.9-50.7 124.6z" fill="#000000" opacity="1" data-original="#000000"></path></g></svg>