<svg xmlns="http://www.w3.org/2000/svg" version="1.1" xmlns:xlink="http://www.w3.org/1999/xlink" width="512" height="512" x="0" y="0" viewBox="0 0 454.757 454" style="enable-background:new 0 0 512 512" xml:space="preserve" class=""><g><path d="M164.426 100.027a7.992 7.992 0 0 1-6.84 5.278 7.767 7.767 0 0 1-7.656-4c-13.055-23.016-39.672-45.04-71.008-45.04-1.945 0-3.91.09-5.887.266a79.903 79.903 0 0 0-54.32 28.215 79.907 79.907 0 0 0-18.41 58.375c8.18 93.512 142.234 172.512 174.738 190.352l-.273-.407c-.567-.8-1.137-1.601-1.704-2.457-1.406-2.03-2.824-4.062-4.23-6.16-.738-1.101-1.473-2.246-2.219-3.375-1.215-1.855-2.398-3.71-3.648-5.601-.797-1.285-1.598-2.614-2.399-3.926-1.113-1.8-2.23-3.602-3.328-5.442-.8-1.398-1.648-2.832-2.472-4.246-1.04-1.808-2.079-3.609-3.102-5.441-.8-1.496-1.602-3-2.402-4.512a302.727 302.727 0 0 1-2.88-5.48c-.8-1.551-1.6-3.121-2.343-4.696-.906-1.84-1.793-3.68-2.664-5.542-.754-1.602-1.473-3.2-2.2-4.848-.8-1.875-1.6-3.746-2.402-5.602a260.403 260.403 0 0 1-1.992-4.937c-.75-1.903-1.46-3.82-2.168-5.742-.605-1.664-1.199-3.329-1.765-5.008a205.804 205.804 0 0 1-1.864-5.824 168.722 168.722 0 0 1-1.504-5.04c-.554-1.976-1.05-3.96-1.546-5.953-.407-1.664-.801-3.336-1.192-5.007-.45-2.024-.8-4.055-1.183-6.09-.297-1.645-.618-3.293-.864-4.942-.32-2.09-.535-4.168-.8-6.257-.184-1.598-.391-3.2-.52-4.801-.176-2.192-.234-4.375-.305-6.567-.047-1.496-.152-2.992-.152-4.488 0-2.398.137-4.848.273-7.262.063-1.257.063-2.515.168-3.761.305-3.664.758-7.313 1.399-10.946 9.304-52.144 59.02-86.953 111.199-77.855 34.523 6.082 58.914 32.879 70.531 60.578 2.27-2.457 4.695-4.8 7.2-7.074.8-.719 1.597-1.375 2.398-2.07 1.297-1.114 2.562-2.258 3.914-3.313 1.539-9.29 1.918-18.73 1.125-28.113-3.938-44.004-42.723-76.536-86.742-72.758-33.848 2.984-58.528 31.039-67.961 57.52zm0 0" fill="#000000" opacity="1" data-original="#000000" class=""></path><path d="M194.531 333.18a592.111 592.111 0 0 0 65.598 73.832c28.242-12.192 176.68-80.496 193.441-175.54 7.567-43.495-21.43-84.937-64.886-92.734a76.578 76.578 0 0 0-58.657 15.52 97.473 97.473 0 0 0-12 10.402 90.713 90.713 0 0 0-9.89 12 7.989 7.989 0 0 1-7.973 3.348 8.005 8.005 0 0 1-6.363-5.86c-7.07-27.203-29.184-57.28-62.68-63.203-43.488-7.617-84.933 21.422-92.629 64.899-9.601 54.472 24.91 115.199 55.582 156.566.168.246.32.504.457.77zM64.172 314.7a8.348 8.348 0 0 0-2.64-1.68 7.928 7.928 0 0 0-6.083 0 7.207 7.207 0 0 0-4.32 4.32 7.923 7.923 0 0 0 1.68 8.719 7.917 7.917 0 0 0 8.722 1.68 9.364 9.364 0 0 0 2.64-1.68 7.923 7.923 0 0 0 1.68-8.72 8.262 8.262 0 0 0-1.68-2.64zM434.492 56.379c2.125.02 4.176-.816 5.68-2.32s2.34-3.551 2.32-5.68a8.41 8.41 0 0 0-2.32-5.68 8.067 8.067 0 0 0-1.281-.96 4.546 4.546 0 0 0-1.36-.72 4.802 4.802 0 0 0-1.527-.48 6.761 6.761 0 0 0-3.113 0c-.5.086-.989.25-1.442.48a6.24 6.24 0 0 0-1.445.72 13.4 13.4 0 0 0-1.195.96 8.345 8.345 0 0 0-2.317 5.68 7.91 7.91 0 0 0 2.317 5.68 7.944 7.944 0 0 0 5.683 2.32zM396.809 102.059a8.001 8.001 0 0 0 13.683-5.68 8.41 8.41 0 0 0-2.32-5.68c-.402-.32-.8-.64-1.281-.96a4.546 4.546 0 0 0-1.36-.72 4.802 4.802 0 0 0-1.527-.48 7.36 7.36 0 0 0-4.555.48 8.305 8.305 0 0 0-2.64 1.68 8.345 8.345 0 0 0-2.317 5.68 7.91 7.91 0 0 0 2.317 5.68zM128.172 434.7a8.348 8.348 0 0 0-2.64-1.68 8.003 8.003 0 0 0-8.723 1.68 9.309 9.309 0 0 0-1.68 2.64 7.961 7.961 0 0 0-.637 3.039 6.687 6.687 0 0 0 .637 3.039c.41.969.976 1.86 1.68 2.64a8.116 8.116 0 0 0 11.363 0 9.451 9.451 0 0 0 1.68-2.64 7.55 7.55 0 0 0 0-6.078 9.309 9.309 0 0 0-1.68-2.64zM58.492 368.379h-8v-8a8 8 0 0 0-16 0v8h-8c-4.422 0-8 3.582-8 8s3.578 8 8 8h8v8a8 8 0 0 0 16 0v-8h8a8 8 0 0 0 0-16zM354.492 32.379h8v8a8 8 0 0 0 16 0v-8h8a8 8 0 0 0 0-16h-8v-8a8 8 0 0 0-16 0v8h-8c-4.422 0-8 3.582-8 8s3.578 8 8 8zm0 0" fill="#000000" opacity="1" data-original="#000000" class=""></path></g></svg>