<svg xmlns="http://www.w3.org/2000/svg" version="1.1" xmlns:xlink="http://www.w3.org/1999/xlink" width="512" height="512" x="0" y="0" viewBox="0 0 128 128" style="enable-background:new 0 0 512 512" xml:space="preserve" class=""><g><path d="M25.356 120.824a20.182 20.182 0 0 1 2.814-2.689 9.878 9.878 0 0 0 3.47-4.383 7.714 7.714 0 0 0 .381-5.049 14.269 14.269 0 0 1 6.014-14.82 8.312 8.312 0 0 0 3.629-8.94 13.508 13.508 0 0 1 .736-8.332 15.23 15.23 0 0 1 3.429-5.222c.6-.6 1.18-1.095 1.743-1.576a11.5 11.5 0 0 0 2.8-3.062A65.523 65.523 0 0 0 40.231 68.6a5.121 5.121 0 0 0-3.195 2.58c-3.936 7.54-8.563 10.131-12.374 18.53-4.117 9.075.957 11.905-3.16 20.979-3.545 7.815-7.8 6.8-11.542 12.165a2.005 2.005 0 0 0 1.637 3.155h13.039a4.931 4.931 0 0 1 .72-5.185z" fill="#000000" opacity="1" data-original="#000000"></path><path d="M25.356 120.824a20.182 20.182 0 0 1 2.814-2.689 9.878 9.878 0 0 0 3.47-4.383 7.714 7.714 0 0 0 .381-5.049 14.269 14.269 0 0 1 6.014-14.82 8.312 8.312 0 0 0 3.629-8.94 13.508 13.508 0 0 1 .736-8.332 15.23 15.23 0 0 1 3.429-5.222c.6-.6 1.18-1.095 1.743-1.576a11.5 11.5 0 0 0 2.8-3.062A65.523 65.523 0 0 0 40.231 68.6a5.121 5.121 0 0 0-3.195 2.58c-3.936 7.54-8.563 10.131-12.374 18.53-4.117 9.075.957 11.905-3.16 20.979-3.545 7.815-7.8 6.8-11.542 12.165a2.005 2.005 0 0 0 1.637 3.155h13.039a4.931 4.931 0 0 1 .72-5.185z" fill="#000000" opacity="1" data-original="#000000"></path><path d="M25.356 120.824a20.182 20.182 0 0 1 2.814-2.689 9.878 9.878 0 0 0 3.47-4.383 7.714 7.714 0 0 0 .381-5.049 14.269 14.269 0 0 1 6.014-14.82 8.312 8.312 0 0 0 3.629-8.94 13.508 13.508 0 0 1 .736-8.332 15.23 15.23 0 0 1 3.429-5.222c.6-.6 1.18-1.095 1.743-1.576a11.5 11.5 0 0 0 2.8-3.062A65.523 65.523 0 0 0 40.231 68.6a5.121 5.121 0 0 0-3.195 2.58c-3.936 7.54-8.563 10.131-12.374 18.53-4.117 9.075.957 11.905-3.16 20.979-3.545 7.815-7.8 6.8-11.542 12.165a2.005 2.005 0 0 0 1.637 3.155h13.039a4.931 4.931 0 0 1 .72-5.185zM118.04 122.854c-3.742-5.363-8-4.35-11.542-12.165-4.117-9.074.957-11.9-3.16-20.979-3.81-8.4-8.441-10.99-12.374-18.526a5.117 5.117 0 0 0-3.2-2.58 65.556 65.556 0 0 0-10.137-1.85 11.531 11.531 0 0 0 2.8 3.059c.563.481 1.146.978 1.743 1.576a15.224 15.224 0 0 1 3.43 5.223 13.5 13.5 0 0 1 .736 8.331 8.312 8.312 0 0 0 3.629 8.94 14.27 14.27 0 0 1 6.014 14.82 7.714 7.714 0 0 0 .381 5.049 9.878 9.878 0 0 0 3.47 4.383 20.182 20.182 0 0 1 2.814 2.689 4.931 4.931 0 0 1 .72 5.185H116.4a2.005 2.005 0 0 0 1.64-3.155z" fill="#000000" opacity="1" data-original="#000000"></path><path d="M118.04 122.854c-3.742-5.363-8-4.35-11.542-12.165-4.117-9.074.957-11.9-3.16-20.979-3.81-8.4-8.441-10.99-12.374-18.526a5.117 5.117 0 0 0-3.2-2.58 65.556 65.556 0 0 0-10.137-1.85 11.531 11.531 0 0 0 2.8 3.059c.563.481 1.146.978 1.743 1.576a15.224 15.224 0 0 1 3.43 5.223 13.5 13.5 0 0 1 .736 8.331 8.312 8.312 0 0 0 3.629 8.94 14.27 14.27 0 0 1 6.014 14.82 7.714 7.714 0 0 0 .381 5.049 9.878 9.878 0 0 0 3.47 4.383 20.182 20.182 0 0 1 2.814 2.689 4.931 4.931 0 0 1 .72 5.185H116.4a2.005 2.005 0 0 0 1.64-3.155z" fill="#000000" opacity="1" data-original="#000000"></path><path d="M118.04 122.854c-3.742-5.363-8-4.35-11.542-12.165-4.117-9.074.957-11.9-3.16-20.979-3.81-8.4-8.441-10.99-12.374-18.526a5.117 5.117 0 0 0-3.2-2.58 65.556 65.556 0 0 0-10.137-1.85 11.531 11.531 0 0 0 2.8 3.059c.563.481 1.146.978 1.743 1.576a15.224 15.224 0 0 1 3.43 5.223 13.5 13.5 0 0 1 .736 8.331 8.312 8.312 0 0 0 3.629 8.94 14.27 14.27 0 0 1 6.014 14.82 7.714 7.714 0 0 0 .381 5.049 9.878 9.878 0 0 0 3.47 4.383 20.182 20.182 0 0 1 2.814 2.689 4.931 4.931 0 0 1 .72 5.185H116.4a2.005 2.005 0 0 0 1.64-3.155zM126.026 53.181c-4.393-3.881-13.883-10.8-34.909-12.971a256.56 256.56 0 0 0-52.715 0C17.374 42.38 7.885 49.3 3.492 53.182a460.227 460.227 0 0 1 122.534-.001z" fill="#000000" opacity="1" data-original="#000000"></path><path d="M64 24.893c-13.117 0-23.875 7.865-26.032 15.334v4.856h52.064v-4.856C87.875 32.758 77.117 24.893 64 24.893zm-14.379 9.758a8.454 8.454 0 0 0-1.944 1.549 1.524 1.524 0 0 1-1.3.738 1.495 1.495 0 0 1-1.3-2.227 9.959 9.959 0 0 1 2.968-2.611 1.5 1.5 0 0 1 1.576 2.552zM126.219 56.182a1.693 1.693 0 0 1-.213-.014 457.006 457.006 0 0 0-122.5 0 1.557 1.557 0 0 1-.236.006C9.518 63 20.993 67.779 33.908 70.653c.157-.281.314-.561.468-.858a8.147 8.147 0 0 1 5.07-4.087c8.309-2.254 16.678-2.565 24.484-2.565h.083c9.055 0 16.693.44 24.539 2.565a8.143 8.143 0 0 1 5.072 4.092c.207.4.417.78.629 1.15 13.458-2.838 25.522-7.71 32-14.769-.014-.004-.024.001-.034.001z" fill="#000000" opacity="1" data-original="#000000"></path><circle cx="39.968" cy="11.685" r="4.625" fill="#000000" opacity="1" data-original="#000000"></circle><circle cx="109.219" cy="27.243" r="3.437" fill="#000000" opacity="1" data-original="#000000"></circle><circle cx="81.517" cy="11.331" r="2.961" fill="#000000" opacity="1" data-original="#000000"></circle><circle cx="19.058" cy="29.542" r="2.692" fill="#000000" opacity="1" data-original="#000000"></circle><path d="M100.337 122.742c-2.237-2.691-4.917-3.326-6.757-7.862-2.41-5.94 1.3-7.45-1.12-13.39s-6.11-4.43-8.52-10.37 1.29-7.44-1.12-13.38a12.154 12.154 0 0 0-2.77-4.23c-2.03-2.03-4.28-3.07-5.89-7.04h-.07c-1.67-.11-3.33-.19-5.01-.25-1.5-.049-3-.068-4.506-.073h-1.135c-1.506 0-3.011.024-4.519.073-1.7.06-3.39.14-5.08.25-1.61 3.97-3.86 5.01-5.89 7.04a12.154 12.154 0 0 0-2.77 4.23c-2.41 5.94 1.29 7.44-1.12 13.38s-6.11 4.44-8.52 10.37 1.29 7.45-1.12 13.39c-1.84 4.536-4.52 5.171-6.757 7.862a2 2 0 0 0 1.544 3.267h69.586a2 2 0 0 0 1.544-3.267zm-55.711-13.5-.7.38a.343.343 0 0 0-.131.131l-.38.7a.329.329 0 0 1-.578 0l-.381-.7a.33.33 0 0 0-.131-.131l-.7-.38a.329.329 0 0 1 0-.578l.7-.381a.318.318 0 0 0 .131-.131l.381-.7a.33.33 0 0 1 .578 0l.38.7a.33.33 0 0 0 .131.131l.7.381a.329.329 0 0 1 0 .578zM54.6 79.2a.865.865 0 1 1 .865.864.865.865 0 0 1-.865-.864zm1.572 25.487a.969.969 0 1 1 .969-.969.969.969 0 0 1-.965.97zM62.427 121a1.247 1.247 0 1 1 1.247-1.247A1.246 1.246 0 0 1 62.427 121zm0-28.2a1.247 1.247 0 1 1 1.247-1.246 1.246 1.246 0 0 1-1.247 1.246zm9.832-12.4a1.194 1.194 0 1 1 1.194-1.2 1.193 1.193 0 0 1-1.194 1.194zm7.148 15.1-1.008.551a.476.476 0 0 0-.19.19l-.551 1.008a.477.477 0 0 1-.837 0l-.552-1.008a.467.467 0 0 0-.189-.19l-1.008-.551a.478.478 0 0 1 0-.838l1.008-.551a.473.473 0 0 0 .189-.19l.552-1.008a.477.477 0 0 1 .837 0l.551 1.008a.482.482 0 0 0 .19.19l1.008.551a.478.478 0 0 1 0 .838zm2.339 18.621a1.247 1.247 0 1 1 1.246-1.247 1.247 1.247 0 0 1-1.246 1.243z" fill="#000000" opacity="1" data-original="#000000"></path></g></svg>