<svg xmlns="http://www.w3.org/2000/svg" version="1.1" xmlns:xlink="http://www.w3.org/1999/xlink" width="512" height="512" x="0" y="0" viewBox="0 0 32 32" style="enable-background:new 0 0 512 512" xml:space="preserve" class=""><g><g data-name="Layer 2"><path d="M29.37 12a.74.74 0 0 0 .63-.7V7.44A1.44 1.44 0 0 0 28.56 6H3.44A1.44 1.44 0 0 0 2 7.44v3.86a.74.74 0 0 0 .63.74 4 4 0 0 1 0 7.93.74.74 0 0 0-.63.73v3.86A1.44 1.44 0 0 0 3.44 26h25.12A1.44 1.44 0 0 0 30 24.56V20.7a.74.74 0 0 0-.63-.74 4 4 0 0 1 0-7.93ZM16 20.94a1 1 0 1 1 1-1 1 1 0 0 1-1 1Zm0-3.87a1 1 0 1 1 1-1 1 1 0 0 1-1 .99Zm0-4a1 1 0 1 1 1-1 1 1 0 0 1-1 .99Z" fill="#000000" opacity="1" data-original="#000000" class=""></path><path d="M28.56 27H3.44A2.44 2.44 0 0 1 1 24.56V20.7A1.74 1.74 0 0 1 2.47 19 3 3 0 0 0 5 16a3 3 0 0 0-2.54-3A1.73 1.73 0 0 1 1 11.3V7.44A2.44 2.44 0 0 1 3.44 5h25.12A2.44 2.44 0 0 1 31 7.44v3.86a1.73 1.73 0 0 1-1.47 1.7A3 3 0 0 0 27 16a3 3 0 0 0 2.54 3A1.74 1.74 0 0 1 31 20.7v3.86A2.44 2.44 0 0 1 28.56 27ZM3 20.92v3.65a.44.44 0 0 0 .44.44h25.12a.44.44 0 0 0 .44-.44v-3.65a5 5 0 0 1 0-9.83V7.44a.44.44 0 0 0-.44-.44H3.44a.44.44 0 0 0-.44.44v3.65a5 5 0 0 1 0 9.83Z" fill="#000000" opacity="1" data-original="#000000" class=""></path></g></g></svg>