<svg xmlns="http://www.w3.org/2000/svg" version="1.1" xmlns:xlink="http://www.w3.org/1999/xlink" width="512" height="512" x="0" y="0" viewBox="0 0 488.004 488.004" style="enable-background:new 0 0 512 512" xml:space="preserve" class=""><g><path d="m476.002 104.004-232-96-232 96 232 96z" style="" fill="#61dbdb" data-original="#61dbdb"></path><path d="M12.002 104.004v280l232 96v-280z" style="" fill="#ea7e73" data-original="#ea7e73" class=""></path><path d="M244.002 200.004v280l232-96v-280z" style="" fill="#efc062" data-original="#efc062"></path><path d="M483.674 101.836c-.064-.232-.168-.44-.256-.656a7.884 7.884 0 0 0-.624-1.312 7.47 7.47 0 0 0-.464-.656 6.902 6.902 0 0 0-.92-1.016c-.2-.192-.4-.368-.624-.536-.128-.096-.224-.216-.352-.304-.296-.2-.624-.312-.936-.472-.16-.08-.28-.2-.448-.272l-232-96a7.976 7.976 0 0 0-6.128 0l-232 96c-.168.072-.296.192-.456.272-.312.152-.632.272-.92.464-.128.088-.224.208-.352.304-.224.168-.416.352-.616.536-.336.312-.64.648-.92 1.016a7.47 7.47 0 0 0-.464.656 7.884 7.884 0 0 0-.624 1.312c-.088.224-.192.424-.256.656-.184.704-.312 1.432-.312 2.176v280c0 3.24 1.952 6.16 4.936 7.392l232 96c.104.04.216.024.32.064.888.328 1.8.544 2.744.544s1.856-.216 2.744-.544c.104-.04.216-.024.32-.064l232-96a7.996 7.996 0 0 0 4.936-7.392v-280c0-.744-.128-1.472-.328-2.168zM244.002 16.66l211.08 87.344-211.08 87.344-211.08-87.344 211.08-87.344zm-224 99.312 216 89.376v262.68l-216-89.368V115.972zm448 262.688-216 89.376V205.348l216-89.376V378.66z" style="" fill="#122333" data-original="#122333" class=""></path></g></svg>