<svg xmlns="http://www.w3.org/2000/svg" version="1.1" xmlns:xlink="http://www.w3.org/1999/xlink" width="512" height="512" x="0" y="0" viewBox="0 0 512 512" style="enable-background:new 0 0 512 512" xml:space="preserve" class=""><g><path d="M486.711 182.806c-.15.168-.305.332-.464.492L205.671 463.874c-24.002 24.002-52.469 36.548-82.706 36.549-2.297 0-4.603-.072-6.919-.218-28.886-1.812-56.91-14.924-78.909-36.922C15.138 441.284 2.026 413.261.214 384.374c-2.058-32.808 10.505-63.799 36.33-89.625L316.2 15.096c4.687-4.686 12.285-4.685 16.971 0 4.686 4.687 4.686 12.285 0 16.971L53.515 311.72c-46.033 46.034-31.961 102.038.593 134.593 32.555 32.553 88.559 46.625 134.592.591l280.33-280.33c30.79-34.717 20.374-74.468-3.667-98.507-24.04-24.04-63.791-34.457-98.507-3.666L187.745 243.51c-23.657 23.657-16.877 51.616.336 68.829 17.214 17.214 45.173 23.992 68.83.335l155.008-155.008c4.687-4.687 12.284-4.687 16.971 0 4.686 4.687 4.686 12.284 0 16.971L273.882 329.645c-33.625 33.625-77.152 25.283-102.771-.335s-33.96-69.146-.337-102.77L350.132 47.184c.159-.159.323-.314.491-.464 20.748-18.532 45.153-27.165 70.569-24.957 22.46 1.948 44.174 12.365 61.141 29.333 16.968 16.967 27.385 38.681 29.333 61.141 2.207 25.419-6.423 49.822-24.955 70.569z" fill="#000000" opacity="1" data-original="#000000" class=""></path></g></svg>