<svg xmlns="http://www.w3.org/2000/svg" version="1.1" xmlns:xlink="http://www.w3.org/1999/xlink" width="512" height="512" x="0" y="0" viewBox="0 0 24 24" style="enable-background:new 0 0 512 512" xml:space="preserve" class=""><g><path d="M5 3a2 2 0 1 1-2-2 2 2 0 0 1 2 2zm-2 7a1 1 0 1 0-1-1 1 1 0 0 0 1 1zm0 6a1 1 0 1 0-1-1 1 1 0 0 0 1 1zm0 3a2 2 0 1 0 2 2 2 2 0 0 0-2-2zM9 1a2 2 0 1 0 2 2 2 2 0 0 0-2-2zm1 8a1 1 0 1 0-1 1 1 1 0 0 0 1-1zm-1 4a2 2 0 1 0 2 2 2 2 0 0 0-2-2zm0 7a1 1 0 1 0 1 1 1 1 0 0 0-1-1zm6-16a1 1 0 1 0-1-1 1 1 0 0 0 1 1zm0 3a2 2 0 1 0 2 2 2 2 0 0 0-2-2zm1 8a1 1 0 1 0-1 1 1 1 0 0 0 1-1zm-1 4a2 2 0 1 0 2 2 2 2 0 0 0-2-2zm6-14a2 2 0 1 0-2-2 2 2 0 0 0 2 2zm-1 4a1 1 0 1 0 1-1 1 1 0 0 0-1 1zm1 4a2 2 0 1 0 2 2 2 2 0 0 0-2-2zm0 7a1 1 0 1 0 1 1 1 1 0 0 0-1-1z" fill="#000000" opacity="1" data-original="#000000"></path></g></svg>