<svg xmlns="http://www.w3.org/2000/svg" version="1.1" xmlns:xlink="http://www.w3.org/1999/xlink" width="512" height="512" x="0" y="0" viewBox="0 0 512 512" style="enable-background:new 0 0 512 512" xml:space="preserve" class=""><g><path d="M187.628 231.335H43.707C19.607 231.335 0 211.728 0 187.628V43.707C0 19.607 19.607 0 43.707 0h143.921c24.1 0 43.707 19.607 43.707 43.707v143.921c0 24.1-19.607 43.707-43.707 43.707z" style="" fill="#8aff83" data-original="#83c9ff" class="" opacity="1"></path><path d="M468.293 231.335H324.372c-24.1 0-43.707-19.607-43.707-43.707V43.707c0-24.1 19.607-43.707 43.707-43.707h143.921C492.393 0 512 19.607 512 43.707v143.921c0 24.1-19.607 43.707-43.707 43.707z" style="" fill="#f5ff2f" data-original="#3a4de2" class="" opacity="0.7686274509803922"></path><path d="M187.628 512H43.707C19.607 512 0 492.393 0 468.293V324.372c0-24.1 19.607-43.707 43.707-43.707h143.921c24.1 0 43.707 19.607 43.707 43.707v143.921c0 24.1-19.607 43.707-43.707 43.707z" style="" fill="#fd3325" data-original="#2586fd" class="" opacity="0.6705882352941176"></path><path d="M468.293 512H324.372c-24.1 0-43.707-19.607-43.707-43.707V324.372c0-24.1 19.607-43.707 43.707-43.707h143.921c24.1 0 43.707 19.607 43.707 43.707v143.921c0 24.1-19.607 43.707-43.707 43.707z" style="" fill="#8aff83" data-original="#83c9ff" class="" opacity="1"></path></g></svg>